<svg width="152" height="36" viewBox="0 0 152 36" fill="none" xmlns="http://www.w3.org/2000/svg">
<path d="M7.51562 34.6562C7.48438 34.2812 7.28125 34 6.90625 33.8125C6.54688 33.625 6.24219 33.4375 5.99219 33.25C4.19531 32.0312 2.92188 30.5469 2.17188 28.7969C1.4375 27.0312 1.02344 25.1641 0.929688 23.1953C0.742188 18.7422 1.94531 15.3516 4.53906 13.0234C5.46094 12.1953 6.52344 11.5234 7.72656 11.0078C8.92969 10.4766 10.1641 10.0469 11.4297 9.71875C11.8203 9.64062 12.1094 9.83594 12.2969 10.3047L15.6719 18.2266C15.8281 18.6484 15.7734 18.9141 15.5078 19.0234H15.4609L5.85156 22.75C5.66406 22.8438 5.58594 22.9922 5.61719 23.1953C6.38281 26.6641 7.66406 28.8906 9.46094 29.875C11.2578 30.8438 13.0469 30.9844 14.8281 30.2969C15.1406 30.1562 15.3359 30.1797 15.4141 30.3672C15.5078 30.5547 15.4531 30.6953 15.25 30.7891C13.9844 31.4297 12.7734 32.0859 11.6172 32.7578C10.4766 33.4297 9.45312 34.1328 8.54688 34.8672C8.40625 34.9609 8.19531 34.9922 7.91406 34.9609C7.64844 34.9297 7.51562 34.8281 7.51562 34.6562ZM5.33594 21.4141C5.35156 21.5391 5.40625 21.6406 5.5 21.7188C5.59375 21.7812 5.71094 21.7812 5.85156 21.7188L10.8438 19.8438C11.0781 19.75 11.1484 19.5859 11.0547 19.3516L8.19531 12.3438C8.05469 12 7.77344 11.9531 7.35156 12.2031C6.44531 12.7344 5.82812 13.9453 5.5 15.8359C5.17188 17.7266 5.11719 19.5859 5.33594 21.4141ZM19.8438 31.5625C19.5469 31.6719 19.3828 31.625 19.3516 31.4219C19.3203 31.2031 19.4375 30.9688 19.7031 30.7188C21.5 28.3281 22.3984 26.0781 22.3984 23.9688C22.4141 21.8594 21.6719 20.0391 20.1719 18.5078C17.6562 15.9297 16.5781 13.9062 16.9375 12.4375C17.2969 10.9531 18.5078 9.17969 20.5703 7.11719C20.7734 6.89844 20.9531 6.85938 21.1094 7C21.2812 7.14062 21.2734 7.32031 21.0859 7.53906C19.9922 8.85156 19.9141 9.98438 20.8516 10.9375C21.9922 12.0938 22.8828 13.125 23.5234 14.0312C23.6484 14.2188 23.8203 14.2578 24.0391 14.1484C25.4141 13.3984 26.7188 12.6016 27.9531 11.7578C29.2031 10.8984 30.4375 9.99219 31.6562 9.03906C31.7812 8.92969 31.9141 8.89844 32.0547 8.94531C32.1953 8.99219 32.2734 9.10156 32.2891 9.27344C32.4297 10.1328 32.7422 10.8672 33.2266 11.4766C33.7109 12.0859 34.2109 12.6797 34.7266 13.2578C36.6172 15.5078 37.4688 18.0078 37.2812 20.7578C37.0312 24.1797 35.875 26.7656 33.8125 28.5156C32.7812 29.4062 31.7266 30.4062 30.6484 31.5156C29.5703 32.6094 28.6797 33.6484 27.9766 34.6328C27.8047 34.8203 27.6328 34.8516 27.4609 34.7266C26.5859 34.1641 25.4141 33.3906 23.9453 32.4062C22.4766 31.4219 21.1094 31.1406 19.8438 31.5625ZM24.0859 27.6953C24.9297 28.0078 25.8438 28.4609 26.8281 29.0547C27.9062 29.6953 28.8672 30.2656 29.7109 30.7656C29.9141 30.8906 30.0859 30.8438 30.2266 30.625C30.6797 29.8594 31.2031 28.8281 31.7969 27.5312C32.3906 26.2344 32.7109 24.7578 32.7578 23.1016C32.7734 21.3984 32.4453 19.8672 31.7734 18.5078C31.1016 17.1484 30.3594 15.8516 29.5469 14.6172C28.6406 13.3047 26.9531 13.3594 24.4844 14.7812C24.2656 14.8906 24.2188 15.0625 24.3438 15.2969C25.6719 17.625 26.1562 19.7891 25.7969 21.7891C25.4688 23.6953 24.8281 25.4688 23.875 27.1094C23.8281 27.1875 23.8203 27.2969 23.8516 27.4375C23.8828 27.5781 23.9609 27.6641 24.0859 27.6953ZM51.1562 30.6953C50.3594 31.3047 49.4844 31.9766 48.5312 32.7109C47.5781 33.4297 46.6953 34.0938 45.8828 34.7031C45.6016 34.9219 45.375 35.0156 45.2031 34.9844C45.0469 34.9531 44.9844 34.8125 45.0156 34.5625C45.0156 34.2344 44.5312 33.6094 43.5625 32.6875C41.0156 30.2969 39.7891 27.1875 39.8828 23.3594C39.9766 20.0781 41.5 17.3047 44.4531 15.0391C45.3594 14.3516 46.2031 13.625 46.9844 12.8594C47.7812 12.0938 48.4844 11.1641 49.0938 10.0703C49.3438 9.58594 49.6875 9.57031 50.125 10.0234C52.5 12.7109 54.875 14.2969 57.25 14.7812C58 14.9219 58.0781 15.2188 57.4844 15.6719C56.75 16.2031 56.3516 16.8594 56.2891 17.6406V17.6875L56.3594 28.3984C56.3594 29.1172 56.6172 29.6094 57.1328 29.875C57.6641 30.1406 58.2344 29.9375 58.8438 29.2656C59.0781 29 59.2969 28.9375 59.5 29.0781C59.7188 29.2031 59.7266 29.4375 59.5234 29.7812C58.9609 30.625 58.4141 31.4531 57.8828 32.2656C57.3672 33.0781 56.9297 33.9219 56.5703 34.7969L56.5469 34.8203C56.3281 35.1797 56.0625 35.1797 55.75 34.8203C55.5781 34.6328 55.375 34.5078 55.1406 34.4453C53.3594 34.0547 52.2344 32.875 51.7656 30.9062C51.7344 30.8125 51.6562 30.7188 51.5312 30.625C51.3906 30.6094 51.2656 30.6328 51.1562 30.6953ZM51.4141 16.8906C50.4453 16.625 49.3125 15.875 48.0156 14.6406C47.3906 13.8906 46.8906 13.8203 46.5156 14.4297C44.8594 16.8984 44.2109 19.625 44.5703 22.6094C45.0703 26.875 46.5703 29.5078 49.0703 30.5078C49.0859 30.5078 49.1016 30.5156 49.1172 30.5312C49.7578 30.7344 50.5312 30.3516 51.4375 29.3828C51.5 29.2891 51.5312 29.2031 51.5312 29.125C51.5156 28.8906 51.5078 28.5234 51.5078 28.0234L51.7188 17.2656C51.7188 17.0781 51.6172 16.9531 51.4141 16.8906ZM61.9844 3.20312C61.7812 2.98438 61.7734 2.77344 61.9609 2.57031C62.1641 2.36719 62.4141 2.40625 62.7109 2.6875C63.0703 3.125 63.4375 3.59375 63.8125 4.09375C64.2031 4.59375 64.5312 5.10937 64.7969 5.64062C64.875 5.79688 64.9844 5.875 65.125 5.875C65.2812 5.875 65.3984 5.8125 65.4766 5.6875C66.3984 4.125 67.6797 2.86719 69.3203 1.91406C70.9609 0.945313 72.7344 0.492187 74.6406 0.554688C75 0.570313 75.1875 0.726562 75.2031 1.02344C75.2188 1.30469 75.0312 1.44531 74.6406 1.44531C73.0938 1.44531 71.8516 1.89062 70.9141 2.78125C69.9922 3.67188 69.5312 5.29687 69.5312 7.65625L69.5078 27.9531C69.5078 28.4531 69.625 28.7734 69.8594 28.9141L71.5469 29.875C71.9375 30.0156 72.4766 29.6406 73.1641 28.75C73.3359 28.5156 73.5469 28.4688 73.7969 28.6094C74.0469 28.7344 74.0391 28.9375 73.7734 29.2188C72.1328 31.0469 70.875 32.8438 70 34.6094C69.8125 34.9375 69.5312 34.9375 69.1562 34.6094C68.3906 33.625 67.6016 32.8516 66.7891 32.2891C65.9766 31.7109 64.8359 31.2734 63.3672 30.9766C63.1172 30.9453 62.9844 30.8359 62.9688 30.6484C62.9688 30.4453 63.0547 30.3047 63.2266 30.2266C63.6172 30.0859 63.9688 29.8281 64.2812 29.4531C64.6094 29.0625 64.7734 28.4219 64.7734 27.5312L64.75 11.7812C64.75 9.53125 64.5078 7.75781 64.0234 6.46094C63.5391 5.16406 62.8594 4.07812 61.9844 3.20312ZM88.7031 28.2109L88.7266 18.4375C88.7266 15.8125 88.25 14.3594 87.2969 14.0781C87.1875 14 87.1328 13.9062 87.1328 13.7969C87.1328 13.6719 87.1875 13.5625 87.2969 13.4688C88.6875 12.4688 89.8359 11.0625 90.7422 9.25C90.8047 9.10938 90.9141 9.03906 91.0703 9.03906C91.2266 9.03906 91.3438 9.10938 91.4219 9.25C92.25 11.0469 93.4375 12.4453 94.9844 13.4453C95.0938 13.5391 95.1484 13.6562 95.1484 13.7969C95.1484 13.9219 95.0859 14.0156 94.9609 14.0781C93.9297 14.375 93.4297 15.8281 93.4609 18.4375V26.6875C93.4609 28.2969 93.7578 29.2812 94.3516 29.6406C95.0078 30.0781 95.5625 29.9062 96.0156 29.125C96.1875 28.8281 96.3828 28.7656 96.6016 28.9375C96.8359 29.0938 96.8359 29.3594 96.6016 29.7344C96.1328 30.4531 95.6875 31.1875 95.2656 31.9375C94.8594 32.6875 94.4453 33.4219 94.0234 34.1406C93.7578 34.5938 93.3906 34.6797 92.9219 34.3984C90.5938 33.2891 89.2266 31.8828 88.8203 30.1797C88.7891 30.0547 88.6953 29.9688 88.5391 29.9219C88.3828 29.875 88.2734 29.8984 88.2109 29.9922C87.3203 30.7109 86.4297 31.4688 85.5391 32.2656C84.6484 33.0469 84.0391 33.7656 83.7109 34.4219C83.4453 34.7969 83.1562 34.7891 82.8438 34.3984C81.9844 33.3984 81.1406 32.6328 80.3125 32.1016C79.5 31.5703 78.4141 31.1406 77.0547 30.8125C76.7578 30.7031 76.6172 30.5703 76.6328 30.4141C76.6484 30.2578 76.75 30.1406 76.9375 30.0625C77.3281 29.9219 77.6797 29.6641 77.9922 29.2891C78.3203 28.8984 78.4844 28.2578 78.4844 27.3672V17.4531C78.4844 15.8594 78.1875 14.8828 77.5938 14.5234C76.8906 14.1016 76.3281 14.2734 75.9062 15.0391C75.7344 15.3359 75.5391 15.3984 75.3203 15.2266C75.1016 15.0547 75.1094 14.7812 75.3438 14.4062C75.7969 13.7031 76.2266 12.9766 76.6328 12.2266C77.0547 11.4766 77.4844 10.7266 77.9219 9.97656C78.1875 9.50781 78.5391 9.42188 78.9766 9.71875H79C81.8281 11.2031 83.2422 13.2344 83.2422 15.8125L83.1953 27.8125C83.1953 28.2656 83.3125 28.5703 83.5469 28.7266L85.5625 30.3906C85.7188 30.5312 85.8984 30.5469 86.1016 30.4375C87.3672 29.4375 88.1875 28.7969 88.5625 28.5156C88.6562 28.4531 88.7031 28.3516 88.7031 28.2109ZM110.594 30.6953C109.797 31.3047 108.922 31.9766 107.969 32.7109C107.016 33.4297 106.133 34.0938 105.32 34.7031C105.039 34.9219 104.812 35.0156 104.641 34.9844C104.484 34.9531 104.422 34.8125 104.453 34.5625C104.453 34.2344 103.969 33.6094 103 32.6875C100.453 30.2969 99.2266 27.1875 99.3203 23.3594C99.4141 20.0781 100.938 17.3047 103.891 15.0391C104.797 14.3516 105.641 13.625 106.422 12.8594C107.219 12.0938 107.922 11.1641 108.531 10.0703C108.781 9.58594 109.125 9.57031 109.562 10.0234C111.938 12.7109 114.312 14.2969 116.688 14.7812C117.438 14.9219 117.516 15.2188 116.922 15.6719C116.188 16.2031 115.789 16.8594 115.727 17.6406V17.6875L115.797 28.3984C115.797 29.1172 116.055 29.6094 116.57 29.875C117.102 30.1406 117.672 29.9375 118.281 29.2656C118.516 29 118.734 28.9375 118.938 29.0781C119.156 29.2031 119.164 29.4375 118.961 29.7812C118.398 30.625 117.852 31.4531 117.32 32.2656C116.805 33.0781 116.367 33.9219 116.008 34.7969L115.984 34.8203C115.766 35.1797 115.5 35.1797 115.188 34.8203C115.016 34.6328 114.812 34.5078 114.578 34.4453C112.797 34.0547 111.672 32.875 111.203 30.9062C111.172 30.8125 111.094 30.7188 110.969 30.625C110.828 30.6094 110.703 30.6328 110.594 30.6953ZM110.852 16.8906C109.883 16.625 108.75 15.875 107.453 14.6406C106.828 13.8906 106.328 13.8203 105.953 14.4297C104.297 16.8984 103.648 19.625 104.008 22.6094C104.508 26.875 106.008 29.5078 108.508 30.5078C108.523 30.5078 108.539 30.5156 108.555 30.5312C109.195 30.7344 109.969 30.3516 110.875 29.3828C110.938 29.2891 110.969 29.2031 110.969 29.125C110.953 28.8906 110.945 28.5234 110.945 28.0234L111.156 17.2656C111.156 17.0781 111.055 16.9531 110.852 16.8906ZM129.18 14.8984L129.156 28.0234C129.156 28.5078 129.273 28.8281 129.508 28.9844L131.195 29.9453C131.523 30.2266 132.07 29.8516 132.836 28.8203C132.977 28.6172 133.164 28.5859 133.398 28.7266C133.648 28.8672 133.664 29.0547 133.445 29.2891C131.773 31.1172 130.516 32.9141 129.672 34.6797C129.406 35.0078 129.117 35.0078 128.805 34.6797C127.93 33.6484 127.117 32.875 126.367 32.3594C125.617 31.8438 124.5 31.4062 123.016 31.0469C122.766 31 122.633 30.8828 122.617 30.6953C122.602 30.5078 122.695 30.375 122.898 30.2969C123.945 30.0469 124.461 29.1484 124.445 27.6016L124.422 14.9219C124.438 14.6406 124.32 14.5 124.07 14.5H121.305C121.086 14.5 120.945 14.4141 120.883 14.2422C120.82 14.0703 120.891 13.9219 121.094 13.7969C122.969 12.4688 124.875 10.8672 126.812 8.99219C128.766 7.11719 130.539 5.33594 132.133 3.64844C132.336 3.42969 132.531 3.39062 132.719 3.53125C132.922 3.65625 132.93 3.84375 132.742 4.09375C132.023 4.98438 131.297 6.14062 130.562 7.5625C129.844 8.98438 129.406 10.2812 129.25 11.4531C129.219 11.6094 129.227 11.7266 129.273 11.8047C129.367 11.8984 129.477 11.9453 129.602 11.9453H133.656C133.766 11.9453 133.859 11.9844 133.938 12.0625C134.016 12.1719 134.055 12.2734 134.055 12.3672L133.961 14.125C133.93 14.375 133.797 14.5 133.562 14.5H129.508C129.289 14.5 129.18 14.6328 129.18 14.8984ZM143.031 34.6562C143 34.2812 142.797 34 142.422 33.8125C142.062 33.625 141.758 33.4375 141.508 33.25C139.711 32.0312 138.438 30.5469 137.688 28.7969C136.953 27.0312 136.539 25.1641 136.445 23.1953C136.258 18.7422 137.461 15.3516 140.055 13.0234C140.977 12.1953 142.039 11.5234 143.242 11.0078C144.445 10.4766 145.68 10.0469 146.945 9.71875C147.336 9.64062 147.625 9.83594 147.812 10.3047L151.188 18.2266C151.344 18.6484 151.289 18.9141 151.023 19.0234H150.977L141.367 22.75C141.18 22.8438 141.102 22.9922 141.133 23.1953C141.898 26.6641 143.18 28.8906 144.977 29.875C146.773 30.8438 148.562 30.9844 150.344 30.2969C150.656 30.1562 150.852 30.1797 150.93 30.3672C151.023 30.5547 150.969 30.6953 150.766 30.7891C149.5 31.4297 148.289 32.0859 147.133 32.7578C145.992 33.4297 144.969 34.1328 144.062 34.8672C143.922 34.9609 143.711 34.9922 143.43 34.9609C143.164 34.9297 143.031 34.8281 143.031 34.6562ZM140.852 21.4141C140.867 21.5391 140.922 21.6406 141.016 21.7188C141.109 21.7812 141.227 21.7812 141.367 21.7188L146.359 19.8438C146.594 19.75 146.664 19.5859 146.57 19.3516L143.711 12.3438C143.57 12 143.289 11.9531 142.867 12.2031C141.961 12.7344 141.344 13.9453 141.016 15.8359C140.688 17.7266 140.633 19.5859 140.852 21.4141Z" fill="#773333"/>
</svg>
